<?xml version="1.0" standalone="yes"?>
<!-- SVG graphic -->
<svg xmlns='http://www.w3.org/2000/svg' xmlns:xlink='http://www.w3.org/1999/xlink'
width="460px" height="460px" preserveAspectRatio="xMinYMin meet" viewBox="0 0 460 460" version="1.1">
<rect x="5" y="0" width="2.5" height="2.5" fill="blue"/>
<rect x="10" y="0" width="2.5" height="2.5" fill="blue"/>
<rect x="15" y="0" width="2.5" height="2.5" fill="blue"/>
<rect x="20" y="0" width="2.5" height="2.5" fill="blue"/>
<rect x="25" y="0" width="2.5" height="2.5" fill="blue"/>
<rect x="30" y="0" width="2.5" height="2.5" fill="blue"/>
<rect x="35" y="0" width="2.5" height="2.5" fill="blue"/>
<rect x="40" y="0" width="2.5" height="2.5" fill="blue"/>
<rect x="45" y="0" width="2.5" height="2.5" fill="blue"/>
<rect x="50" y="0" width="2.5" height="2.5" fill="blue"/>
<rect x="65" y="0" width="2.5" height="2.5" fill="blue"/>
<rect x="75" y="0" width="2.5" height="2.5" fill="blue"/>
<rect x="385" y="0" width="2.5" height="2.5" fill="blue"/>
<rect x="390" y="0" width="2.5" height="2.5" fill="blue"/>
<rect x="395" y="0" width="2.5" height="2.5" fill="blue"/>
<rect x="400" y="0" width="2.5" height="2.5" fill="blue"/>
<rect x="405" y="0" width="2.5" height="2.5" fill="blue"/>
<rect x="410" y="0" width="2.5" height="2.5" fill="blue"/>
<rect x="415" y="0" width="2.5" height="2.5" fill="blue"/>
<rect x="420" y="0" width="2.5" height="2.5" fill="blue"/>
<rect x="425" y="0" width="2.5" height="2.5" fill="blue"/>
<rect x="430" y="0" width="2.5" height="2.5" fill="blue"/>
<rect x="435" y="0" width="2.5" height="2.5" fill="blue"/>
<rect x="440" y="0" width="2.5" height="2.5" fill="blue"/>
<rect x="10" y="5" width="2.5" height="2.5" fill="blue"/>
<rect x="15" y="5" width="2.5" height="2.5" fill="blue"/>
<rect x="20" y="5" width="2.5" height="2.5" fill="blue"/>
<rect x="25" y="5" width="2.5" height="2.5" fill="blue"/>
<rect x="30" y="5" width="2.5" height="2.5" fill="blue"/>
<rect x="35" y="5" width="2.5" height="2.5" fill="blue"/>
<rect x="40" y="5" width="2.5" height="2.5" fill="blue"/>
<rect x="45" y="5" width="2.5" height="2.5" fill="blue"/>
<rect x="50" y="5" width="2.5" height="2.5" fill="blue"/>
<rect x="55" y="5" width="2.5" height="2.5" fill="blue"/>
<rect x="395" y="5" width="2.5" height="2.5" fill="blue"/>
<rect x="400" y="5" width="2.5" height="2.5" fill="blue"/>
<rect x="405" y="5" width="2.5" height="2.5" fill="blue"/>
<rect x="410" y="5" width="2.5" height="2.5" fill="blue"/>
<rect x="415" y="5" width="2.5" height="2.5" fill="blue"/>
<rect x="420" y="5" width="2.5" height="2.5" fill="blue"/>
<rect x="425" y="5" width="2.5" height="2.5" fill="blue"/>
<rect x="430" y="5" width="2.5" height="2.5" fill="blue"/>
<rect x="435" y="5" width="2.5" height="2.5" fill="blue"/>
<rect x="440" y="5" width="2.5" height="2.5" fill="blue"/>
<rect x="15" y="10" width="2.5" height="2.5" fill="blue"/>
<rect x="20" y="10" width="2.5" height="2.5" fill="blue"/>
<rect x="25" y="10" width="2.5" height="2.5" fill="blue"/>
<rect x="30" y="10" width="2.5" height="2.5" fill="blue"/>
<rect x="35" y="10" width="2.5" height="2.5" fill="blue"/>
<rect x="40" y="10" width="2.5" height="2.5" fill="blue"/>
<rect x="45" y="10" width="2.5" height="2.5" fill="blue"/>
<rect x="50" y="10" width="2.5" height="2.5" fill="blue"/>
<rect x="55" y="10" width="2.5" height="2.5" fill="blue"/>
<rect x="60" y="10" width="2.5" height="2.5" fill="blue"/>
<rect x="400" y="10" width="2.5" height="2.5" fill="blue"/>
<rect x="405" y="10" width="2.5" height="2.5" fill="blue"/>
<rect x="410" y="10" width="2.5" height="2.5" fill="blue"/>
<rect x="415" y="10" width="2.5" height="2.5" fill="blue"/>
<rect x="420" y="10" width="2.5" height="2.5" fill="blue"/>
<rect x="425" y="10" width="2.5" height="2.5" fill="blue"/>
<rect x="430" y="10" width="2.5" height="2.5" fill="blue"/>
<rect x="435" y="10" width="2.5" height="2.5" fill="blue"/>
<rect x="440" y="10" width="2.5" height="2.5" fill="blue"/>
<rect x="20" y="15" width="2.5" height="2.5" fill="blue"/>
<rect x="25" y="15" width="2.5" height="2.5" fill="blue"/>
<rect x="30" y="15" width="2.5" height="2.5" fill="blue"/>
<rect x="35" y="15" width="2.5" height="2.5" fill="blue"/>
<rect x="40" y="15" width="2.5" height="2.5" fill="blue"/>
<rect x="45" y="15" width="2.5" height="2.5" fill="blue"/>
<rect x="50" y="15" width="2.5" height="2.5" fill="blue"/>
<rect x="55" y="15" width="2.5" height="2.5" fill="blue"/>
<rect x="60" y="15" width="2.5" height="2.5" fill="blue"/>
<rect x="65" y="15" width="2.5" height="2.5" fill="blue"/>
<rect x="75" y="15" width="2.5" height="2.5" fill="blue"/>
<rect x="400" y="15" width="2.5" height="2.5" fill="blue"/>
<rect x="405" y="15" width="2.5" height="2.5" fill="blue"/>
<rect x="410" y="15" width="2.5" height="2.5" fill="blue"/>
<rect x="415" y="15" width="2.5" height="2.5" fill="blue"/>
<rect x="420" y="15" width="2.5" height="2.5" fill="blue"/>
<rect x="425" y="15" width="2.5" height="2.5" fill="blue"/>
<rect x="430" y="15" width="2.5" height="2.5" fill="blue"/>
<rect x="435" y="15" width="2.5" height="2.5" fill="blue"/>
<rect x="440" y="15" width="2.5" height="2.5" fill="blue"/>
<rect x="25" y="20" width="2.5" height="2.5" fill="blue"/>
<rect x="30" y="20" width="2.5" height="2.5" fill="blue"/>
<rect x="35" y="20" width="2.5" height="2.5" fill="blue"/>
<rect x="40" y="20" width="2.5" height="2.5" fill="blue"/>
<rect x="45" y="20" width="2.5" height="2.5" fill="blue"/>
<rect x="50" y="20" width="2.5" height="2.5" fill="blue"/>
<rect x="55" y="20" width="2.5" height="2.5" fill="blue"/>
<rect x="60" y="20" width="2.5" height="2.5" fill="blue"/>
<rect x="65" y="20" width="2.5" height="2.5" fill="blue"/>
<rect x="395" y="20" width="2.5" height="2.5" fill="blue"/>
<rect x="400" y="20" width="2.5" height="2.5" fill="blue"/>
<rect x="405" y="20" width="2.5" height="2.5" fill="blue"/>
<rect x="410" y="20" width="2.5" height="2.5" fill="blue"/>
<rect x="415" y="20" width="2.5" height="2.5" fill="blue"/>
<rect x="420" y="20" width="2.5" height="2.5" fill="blue"/>
<rect x="425" y="20" width="2.5" height="2.5" fill="blue"/>
<rect x="430" y="20" width="2.5" height="2.5" fill="blue"/>
<rect x="435" y="20" width="2.5" height="2.5" fill="blue"/>
<rect x="440" y="20" width="2.5" height="2.5" fill="blue"/>
<rect x="30" y="25" width="2.5" height="2.5" fill="blue"/>
<rect x="35" y="25" width="2.5" height="2.5" fill="blue"/>
<rect x="40" y="25" width="2.5" height="2.5" fill="blue"/>
<rect x="45" y="25" width="2.5" height="2.5" fill="blue"/>
<rect x="50" y="25" width="2.5" height="2.5" fill="blue"/>
<rect x="55" y="25" width="2.5" height="2.5" fill="blue"/>
<rect x="60" y="25" width="2.5" height="2.5" fill="blue"/>
<rect x="65" y="25" width="2.5" height="2.5" fill="blue"/>
<rect x="70" y="25" width="2.5" height="2.5" fill="blue"/>
<rect x="75" y="25" width="2.5" height="2.5" fill="blue"/>
<rect x="110" y="25" width="2.5" height="2.5" fill="blue"/>
<rect x="405" y="25" width="2.5" height="2.5" fill="blue"/>
<rect x="410" y="25" width="2.5" height="2.5" fill="blue"/>
<rect x="415" y="25" width="2.5" height="2.5" fill="blue"/>
<rect x="420" y="25" width="2.5" height="2.5" fill="blue"/>
<rect x="425" y="25" width="2.5" height="2.5" fill="blue"/>
<rect x="430" y="25" width="2.5" height="2.5" fill="blue"/>
<rect x="435" y="25" width="2.5" height="2.5" fill="blue"/>
<rect x="440" y="25" width="2.5" height="2.5" fill="blue"/>
<rect x="35" y="30" width="2.5" height="2.5" fill="blue"/>
<rect x="40" y="30" width="2.5" height="2.5" fill="blue"/>
<rect x="45" y="30" width="2.5" height="2.5" fill="blue"/>
<rect x="50" y="30" width="2.5" height="2.5" fill="blue"/>
<rect x="55" y="30" width="2.5" height="2.5" fill="blue"/>
<rect x="60" y="30" width="2.5" height="2.5" fill="blue"/>
<rect x="65" y="30" width="2.5" height="2.5" fill="blue"/>
<rect x="70" y="30" width="2.5" height="2.5" fill="blue"/>
<rect x="395" y="30" width="2.5" height="2.5" fill="blue"/>
<rect x="410" y="30" width="2.5" height="2.5" fill="blue"/>
<rect x="415" y="30" width="2.5" height="2.5" fill="blue"/>
<rect x="420" y="30" width="2.5" height="2.5" fill="blue"/>
<rect x="425" y="30" width="2.5" height="2.5" fill="blue"/>
<rect x="430" y="30" width="2.5" height="2.5" fill="blue"/>
<rect x="435" y="30" width="2.5" height="2.5" fill="blue"/>
<rect x="440" y="30" width="2.5" height="2.5" fill="blue"/>
<rect x="40" y="35" width="2.5" height="2.5" fill="blue"/>
<rect x="45" y="35" width="2.5" height="2.5" fill="blue"/>
<rect x="50" y="35" width="2.5" height="2.5" fill="blue"/>
<rect x="55" y="35" width="2.5" height="2.5" fill="blue"/>
<rect x="60" y="35" width="2.5" height="2.5" fill="blue"/>
<rect x="65" y="35" width="2.5" height="2.5" fill="blue"/>
<rect x="70" y="35" width="2.5" height="2.5" fill="blue"/>
<rect x="395" y="35" width="2.5" height="2.5" fill="blue"/>
<rect x="415" y="35" width="2.5" height="2.5" fill="blue"/>
<rect x="420" y="35" width="2.5" height="2.5" fill="blue"/>
<rect x="425" y="35" width="2.5" height="2.5" fill="blue"/>
<rect x="430" y="35" width="2.5" height="2.5" fill="blue"/>
<rect x="435" y="35" width="2.5" height="2.5" fill="blue"/>
<rect x="440" y="35" width="2.5" height="2.5" fill="blue"/>
<rect x="45" y="40" width="2.5" height="2.5" fill="blue"/>
<rect x="50" y="40" width="2.5" height="2.5" fill="blue"/>
<rect x="55" y="40" width="2.5" height="2.5" fill="blue"/>
<rect x="60" y="40" width="2.5" height="2.5" fill="blue"/>
<rect x="65" y="40" width="2.5" height="2.5" fill="blue"/>
<rect x="70" y="40" width="2.5" height="2.5" fill="blue"/>
<rect x="75" y="40" width="2.5" height="2.5" fill="blue"/>
<rect x="405" y="40" width="2.5" height="2.5" fill="blue"/>
<rect x="415" y="40" width="2.5" height="2.5" fill="blue"/>
<rect x="420" y="40" width="2.5" height="2.5" fill="blue"/>
<rect x="425" y="40" width="2.5" height="2.5" fill="blue"/>
<rect x="430" y="40" width="2.5" height="2.5" fill="blue"/>
<rect x="435" y="40" width="2.5" height="2.5" fill="blue"/>
<rect x="440" y="40" width="2.5" height="2.5" fill="blue"/>
<rect x="50" y="45" width="2.5" height="2.5" fill="blue"/>
<rect x="55" y="45" width="2.5" height="2.5" fill="blue"/>
<rect x="60" y="45" width="2.5" height="2.5" fill="blue"/>
<rect x="65" y="45" width="2.5" height="2.5" fill="blue"/>
<rect x="70" y="45" width="2.5" height="2.5" fill="blue"/>
<rect x="75" y="45" width="2.5" height="2.5" fill="blue"/>
<rect x="80" y="45" width="2.5" height="2.5" fill="blue"/>
<rect x="85" y="45" width="2.5" height="2.5" fill="blue"/>
<rect x="420" y="45" width="2.5" height="2.5" fill="blue"/>
<rect x="425" y="45" width="2.5" height="2.5" fill="blue"/>
<rect x="435" y="45" width="2.5" height="2.5" fill="blue"/>
<rect x="440" y="45" width="2.5" height="2.5" fill="blue"/>
<rect x="55" y="50" width="2.5" height="2.5" fill="blue"/>
<rect x="60" y="50" width="2.5" height="2.5" fill="blue"/>
<rect x="65" y="50" width="2.5" height="2.5" fill="blue"/>
<rect x="70" y="50" width="2.5" height="2.5" fill="blue"/>
<rect x="75" y="50" width="2.5" height="2.5" fill="blue"/>
<rect x="80" y="50" width="2.5" height="2.5" fill="blue"/>
<rect x="85" y="50" width="2.5" height="2.5" fill="blue"/>
<rect x="90" y="50" width="2.5" height="2.5" fill="blue"/>
<rect x="430" y="50" width="2.5" height="2.5" fill="blue"/>
<rect x="435" y="50" width="2.5" height="2.5" fill="blue"/>
<rect x="440" y="50" width="2.5" height="2.5" fill="blue"/>
<rect x="60" y="55" width="2.5" height="2.5" fill="blue"/>
<rect x="65" y="55" width="2.5" height="2.5" fill="blue"/>
<rect x="70" y="55" width="2.5" height="2.5" fill="blue"/>
<rect x="75" y="55" width="2.5" height="2.5" fill="blue"/>
<rect x="80" y="55" width="2.5" height="2.5" fill="blue"/>
<rect x="85" y="55" width="2.5" height="2.5" fill="blue"/>
<rect x="90" y="55" width="2.5" height="2.5" fill="blue"/>
<rect x="95" y="55" width="2.5" height="2.5" fill="blue"/>
<rect x="100" y="55" width="2.5" height="2.5" fill="blue"/>
<rect x="65" y="60" width="2.5" height="2.5" fill="blue"/>
<rect x="70" y="60" width="2.5" height="2.5" fill="blue"/>
<rect x="75" y="60" width="2.5" height="2.5" fill="blue"/>
<rect x="80" y="60" width="2.5" height="2.5" fill="blue"/>
<rect x="85" y="60" width="2.5" height="2.5" fill="blue"/>
<rect x="90" y="60" width="2.5" height="2.5" fill="blue"/>
<rect x="95" y="60" width="2.5" height="2.5" fill="blue"/>
<rect x="100" y="60" width="2.5" height="2.5" fill="blue"/>
<rect x="70" y="65" width="2.5" height="2.5" fill="blue"/>
<rect x="75" y="65" width="2.5" height="2.5" fill="blue"/>
<rect x="80" y="65" width="2.5" height="2.5" fill="blue"/>
<rect x="85" y="65" width="2.5" height="2.5" fill="blue"/>
<rect x="90" y="65" width="2.5" height="2.5" fill="blue"/>
<rect x="95" y="65" width="2.5" height="2.5" fill="blue"/>
<rect x="100" y="65" width="2.5" height="2.5" fill="blue"/>
<rect x="110" y="65" width="2.5" height="2.5" fill="blue"/>
<rect x="75" y="70" width="2.5" height="2.5" fill="blue"/>
<rect x="80" y="70" width="2.5" height="2.5" fill="blue"/>
<rect x="85" y="70" width="2.5" height="2.5" fill="blue"/>
<rect x="90" y="70" width="2.5" height="2.5" fill="blue"/>
<rect x="95" y="70" width="2.5" height="2.5" fill="blue"/>
<rect x="100" y="70" width="2.5" height="2.5" fill="blue"/>
<rect x="105" y="70" width="2.5" height="2.5" fill="blue"/>
<rect x="110" y="70" width="2.5" height="2.5" fill="blue"/>
<rect x="80" y="75" width="2.5" height="2.5" fill="blue"/>
<rect x="85" y="75" width="2.5" height="2.5" fill="blue"/>
<rect x="90" y="75" width="2.5" height="2.5" fill="blue"/>
<rect x="95" y="75" width="2.5" height="2.5" fill="blue"/>
<rect x="100" y="75" width="2.5" height="2.5" fill="blue"/>
<rect x="105" y="75" width="2.5" height="2.5" fill="blue"/>
<rect x="110" y="75" width="2.5" height="2.5" fill="blue"/>
<rect x="115" y="75" width="2.5" height="2.5" fill="blue"/>
<rect x="85" y="80" width="2.5" height="2.5" fill="blue"/>
<rect x="90" y="80" width="2.5" height="2.5" fill="blue"/>
<rect x="95" y="80" width="2.5" height="2.5" fill="blue"/>
<rect x="100" y="80" width="2.5" height="2.5" fill="blue"/>
<rect x="105" y="80" width="2.5" height="2.5" fill="blue"/>
<rect x="110" y="80" width="2.5" height="2.5" fill="blue"/>
<rect x="115" y="80" width="2.5" height="2.5" fill="blue"/>
<rect x="90" y="85" width="2.5" height="2.5" fill="blue"/>
<rect x="95" y="85" width="2.5" height="2.5" fill="blue"/>
<rect x="100" y="85" width="2.5" height="2.5" fill="blue"/>
<rect x="105" y="85" width="2.5" height="2.5" fill="blue"/>
<rect x="110" y="85" width="2.5" height="2.5" fill="blue"/>
<rect x="115" y="85" width="2.5" height="2.5" fill="blue"/>
<rect x="95" y="90" width="2.5" height="2.5" fill="blue"/>
<rect x="100" y="90" width="2.5" height="2.5" fill="blue"/>
<rect x="105" y="90" width="2.5" height="2.5" fill="blue"/>
<rect x="110" y="90" width="2.5" height="2.5" fill="blue"/>
<rect x="115" y="90" width="2.5" height="2.5" fill="blue"/>
<rect x="120" y="90" width="2.5" height="2.5" fill="blue"/>
<rect x="100" y="95" width="2.5" height="2.5" fill="blue"/>
<rect x="105" y="95" width="2.5" height="2.5" fill="blue"/>
<rect x="110" y="95" width="2.5" height="2.5" fill="blue"/>
<rect x="115" y="95" width="2.5" height="2.5" fill="blue"/>
<rect x="120" y="95" width="2.5" height="2.5" fill="blue"/>
<rect x="125" y="95" width="2.5" height="2.5" fill="blue"/>
<rect x="105" y="100" width="2.5" height="2.5" fill="blue"/>
<rect x="110" y="100" width="2.5" height="2.5" fill="blue"/>
<rect x="115" y="100" width="2.5" height="2.5" fill="blue"/>
<rect x="120" y="100" width="2.5" height="2.5" fill="blue"/>
<rect x="125" y="100" width="2.5" height="2.5" fill="blue"/>
<rect x="110" y="105" width="2.5" height="2.5" fill="blue"/>
<rect x="115" y="105" width="2.5" height="2.5" fill="blue"/>
<rect x="120" y="105" width="2.5" height="2.5" fill="blue"/>
<rect x="125" y="105" width="2.5" height="2.5" fill="blue"/>
<rect x="130" y="105" width="2.5" height="2.5" fill="blue"/>
<rect x="135" y="105" width="2.5" height="2.5" fill="blue"/>
<rect x="115" y="110" width="2.5" height="2.5" fill="blue"/>
<rect x="120" y="110" width="2.5" height="2.5" fill="blue"/>
<rect x="125" y="110" width="2.5" height="2.5" fill="blue"/>
<rect x="130" y="110" width="2.5" height="2.5" fill="blue"/>
<rect x="135" y="110" width="2.5" height="2.5" fill="blue"/>
<rect x="120" y="115" width="2.5" height="2.5" fill="blue"/>
<rect x="125" y="115" width="2.5" height="2.5" fill="blue"/>
<rect x="130" y="115" width="2.5" height="2.5" fill="blue"/>
<rect x="135" y="115" width="2.5" height="2.5" fill="blue"/>
<rect x="140" y="115" width="2.5" height="2.5" fill="blue"/>
<rect x="125" y="120" width="2.5" height="2.5" fill="blue"/>
<rect x="130" y="120" width="2.5" height="2.5" fill="blue"/>
<rect x="135" y="120" width="2.5" height="2.5" fill="blue"/>
<rect x="140" y="120" width="2.5" height="2.5" fill="blue"/>
<rect x="145" y="120" width="2.5" height="2.5" fill="blue"/>
<rect x="150" y="120" width="2.5" height="2.5" fill="blue"/>
<rect x="130" y="125" width="2.5" height="2.5" fill="blue"/>
<rect x="135" y="125" width="2.5" height="2.5" fill="blue"/>
<rect x="140" y="125" width="2.5" height="2.5" fill="blue"/>
<rect x="145" y="125" width="2.5" height="2.5" fill="blue"/>
<rect x="150" y="125" width="2.5" height="2.5" fill="blue"/>
<rect x="155" y="125" width="2.5" height="2.5" fill="blue"/>
<rect x="160" y="125" width="2.5" height="2.5" fill="blue"/>
<rect x="135" y="130" width="2.5" height="2.5" fill="blue"/>
<rect x="140" y="130" width="2.5" height="2.5" fill="blue"/>
<rect x="145" y="130" width="2.5" height="2.5" fill="blue"/>
<rect x="150" y="130" width="2.5" height="2.5" fill="blue"/>
<rect x="155" y="130" width="2.5" height="2.5" fill="blue"/>
<rect x="160" y="130" width="2.5" height="2.5" fill="blue"/>
<rect x="140" y="135" width="2.5" height="2.5" fill="blue"/>
<rect x="145" y="135" width="2.5" height="2.5" fill="blue"/>
<rect x="150" y="135" width="2.5" height="2.5" fill="blue"/>
<rect x="155" y="135" width="2.5" height="2.5" fill="blue"/>
<rect x="160" y="135" width="2.5" height="2.5" fill="blue"/>
<rect x="165" y="135" width="2.5" height="2.5" fill="blue"/>
<rect x="145" y="140" width="2.5" height="2.5" fill="blue"/>
<rect x="150" y="140" width="2.5" height="2.5" fill="blue"/>
<rect x="155" y="140" width="2.5" height="2.5" fill="blue"/>
<rect x="160" y="140" width="2.5" height="2.5" fill="blue"/>
<rect x="165" y="140" width="2.5" height="2.5" fill="blue"/>
<rect x="170" y="140" width="2.5" height="2.5" fill="blue"/>
<rect x="175" y="140" width="2.5" height="2.5" fill="blue"/>
<rect x="180" y="140" width="2.5" height="2.5" fill="blue"/>
<rect x="185" y="140" width="2.5" height="2.5" fill="blue"/>
<rect x="150" y="145" width="2.5" height="2.5" fill="blue"/>
<rect x="155" y="145" width="2.5" height="2.5" fill="blue"/>
<rect x="160" y="145" width="2.5" height="2.5" fill="blue"/>
<rect x="165" y="145" width="2.5" height="2.5" fill="blue"/>
<rect x="170" y="145" width="2.5" height="2.5" fill="blue"/>
<rect x="175" y="145" width="2.5" height="2.5" fill="blue"/>
<rect x="180" y="145" width="2.5" height="2.5" fill="blue"/>
<rect x="185" y="145" width="2.5" height="2.5" fill="blue"/>
<rect x="190" y="145" width="2.5" height="2.5" fill="blue"/>
<rect x="155" y="150" width="2.5" height="2.5" fill="blue"/>
<rect x="160" y="150" width="2.5" height="2.5" fill="blue"/>
<rect x="165" y="150" width="2.5" height="2.5" fill="blue"/>
<rect x="170" y="150" width="2.5" height="2.5" fill="blue"/>
<rect x="175" y="150" width="2.5" height="2.5" fill="blue"/>
<rect x="180" y="150" width="2.5" height="2.5" fill="blue"/>
<rect x="185" y="150" width="2.5" height="2.5" fill="blue"/>
<rect x="190" y="150" width="2.5" height="2.5" fill="blue"/>
<rect x="160" y="155" width="2.5" height="2.5" fill="blue"/>
<rect x="165" y="155" width="2.5" height="2.5" fill="blue"/>
<rect x="170" y="155" width="2.5" height="2.5" fill="blue"/>
<rect x="175" y="155" width="2.5" height="2.5" fill="blue"/>
<rect x="180" y="155" width="2.5" height="2.5" fill="blue"/>
<rect x="185" y="155" width="2.5" height="2.5" fill="blue"/>
<rect x="190" y="155" width="2.5" height="2.5" fill="blue"/>
<rect x="165" y="160" width="2.5" height="2.5" fill="blue"/>
<rect x="170" y="160" width="2.5" height="2.5" fill="blue"/>
<rect x="175" y="160" width="2.5" height="2.5" fill="blue"/>
<rect x="180" y="160" width="2.5" height="2.5" fill="blue"/>
<rect x="185" y="160" width="2.5" height="2.5" fill="blue"/>
<rect x="190" y="160" width="2.5" height="2.5" fill="blue"/>
<rect x="195" y="160" width="2.5" height="2.5" fill="blue"/>
<rect x="170" y="165" width="2.5" height="2.5" fill="blue"/>
<rect x="175" y="165" width="2.5" height="2.5" fill="blue"/>
<rect x="180" y="165" width="2.5" height="2.5" fill="blue"/>
<rect x="185" y="165" width="2.5" height="2.5" fill="blue"/>
<rect x="190" y="165" width="2.5" height="2.5" fill="blue"/>
<rect x="195" y="165" width="2.5" height="2.5" fill="blue"/>
<rect x="200" y="165" width="2.5" height="2.5" fill="blue"/>
<rect x="205" y="165" width="2.5" height="2.5" fill="blue"/>
<rect x="175" y="170" width="2.5" height="2.5" fill="blue"/>
<rect x="180" y="170" width="2.5" height="2.5" fill="blue"/>
<rect x="185" y="170" width="2.5" height="2.5" fill="blue"/>
<rect x="190" y="170" width="2.5" height="2.5" fill="blue"/>
<rect x="195" y="170" width="2.5" height="2.5" fill="blue"/>
<rect x="200" y="170" width="2.5" height="2.5" fill="blue"/>
<rect x="205" y="170" width="2.5" height="2.5" fill="blue"/>
<rect x="180" y="175" width="2.5" height="2.5" fill="blue"/>
<rect x="185" y="175" width="2.5" height="2.5" fill="blue"/>
<rect x="190" y="175" width="2.5" height="2.5" fill="blue"/>
<rect x="195" y="175" width="2.5" height="2.5" fill="blue"/>
<rect x="200" y="175" width="2.5" height="2.5" fill="blue"/>
<rect x="205" y="175" width="2.5" height="2.5" fill="blue"/>
<rect x="210" y="175" width="2.5" height="2.5" fill="blue"/>
<rect x="185" y="180" width="2.5" height="2.5" fill="blue"/>
<rect x="190" y="180" width="2.5" height="2.5" fill="blue"/>
<rect x="195" y="180" width="2.5" height="2.5" fill="blue"/>
<rect x="200" y="180" width="2.5" height="2.5" fill="blue"/>
<rect x="205" y="180" width="2.5" height="2.5" fill="blue"/>
<rect x="210" y="180" width="2.5" height="2.5" fill="blue"/>
<rect x="190" y="185" width="2.5" height="2.5" fill="blue"/>
<rect x="195" y="185" width="2.5" height="2.5" fill="blue"/>
<rect x="200" y="185" width="2.5" height="2.5" fill="blue"/>
<rect x="205" y="185" width="2.5" height="2.5" fill="blue"/>
<rect x="210" y="185" width="2.5" height="2.5" fill="blue"/>
<rect x="195" y="190" width="2.5" height="2.5" fill="blue"/>
<rect x="200" y="190" width="2.5" height="2.5" fill="blue"/>
<rect x="205" y="190" width="2.5" height="2.5" fill="blue"/>
<rect x="210" y="190" width="2.5" height="2.5" fill="blue"/>
<rect x="215" y="190" width="2.5" height="2.5" fill="blue"/>
<rect x="200" y="195" width="2.5" height="2.5" fill="blue"/>
<rect x="205" y="195" width="2.5" height="2.5" fill="blue"/>
<rect x="210" y="195" width="2.5" height="2.5" fill="blue"/>
<rect x="215" y="195" width="2.5" height="2.5" fill="blue"/>
<rect x="220" y="195" width="2.5" height="2.5" fill="blue"/>
<rect x="225" y="195" width="2.5" height="2.5" fill="blue"/>
<rect x="205" y="200" width="2.5" height="2.5" fill="blue"/>
<rect x="210" y="200" width="2.5" height="2.5" fill="blue"/>
<rect x="215" y="200" width="2.5" height="2.5" fill="blue"/>
<rect x="220" y="200" width="2.5" height="2.5" fill="blue"/>
<rect x="225" y="200" width="2.5" height="2.5" fill="blue"/>
<rect x="230" y="200" width="2.5" height="2.5" fill="blue"/>
<rect x="210" y="205" width="2.5" height="2.5" fill="blue"/>
<rect x="215" y="205" width="2.5" height="2.5" fill="blue"/>
<rect x="220" y="205" width="2.5" height="2.5" fill="blue"/>
<rect x="225" y="205" width="2.5" height="2.5" fill="blue"/>
<rect x="230" y="205" width="2.5" height="2.5" fill="blue"/>
<rect x="235" y="205" width="2.5" height="2.5" fill="blue"/>
<rect x="215" y="210" width="2.5" height="2.5" fill="blue"/>
<rect x="220" y="210" width="2.5" height="2.5" fill="blue"/>
<rect x="225" y="210" width="2.5" height="2.5" fill="blue"/>
<rect x="230" y="210" width="2.5" height="2.5" fill="blue"/>
<rect x="235" y="210" width="2.5" height="2.5" fill="blue"/>
<rect x="240" y="210" width="2.5" height="2.5" fill="blue"/>
<rect x="220" y="215" width="2.5" height="2.5" fill="blue"/>
<rect x="225" y="215" width="2.5" height="2.5" fill="blue"/>
<rect x="230" y="215" width="2.5" height="2.5" fill="blue"/>
<rect x="235" y="215" width="2.5" height="2.5" fill="blue"/>
<rect x="240" y="215" width="2.5" height="2.5" fill="blue"/>
<rect x="245" y="215" width="2.5" height="2.5" fill="blue"/>
<rect x="225" y="220" width="2.5" height="2.5" fill="blue"/>
<rect x="230" y="220" width="2.5" height="2.5" fill="blue"/>
<rect x="235" y="220" width="2.5" height="2.5" fill="blue"/>
<rect x="240" y="220" width="2.5" height="2.5" fill="blue"/>
<rect x="245" y="220" width="2.5" height="2.5" fill="blue"/>
<rect x="250" y="220" width="2.5" height="2.5" fill="blue"/>
<rect x="230" y="225" width="2.5" height="2.5" fill="blue"/>
<rect x="235" y="225" width="2.5" height="2.5" fill="blue"/>
<rect x="240" y="225" width="2.5" height="2.5" fill="blue"/>
<rect x="245" y="225" width="2.5" height="2.5" fill="blue"/>
<rect x="250" y="225" width="2.5" height="2.5" fill="blue"/>
<rect x="255" y="225" width="2.5" height="2.5" fill="blue"/>
<rect x="235" y="230" width="2.5" height="2.5" fill="blue"/>
<rect x="240" y="230" width="2.5" height="2.5" fill="blue"/>
<rect x="245" y="230" width="2.5" height="2.5" fill="blue"/>
<rect x="250" y="230" width="2.5" height="2.5" fill="blue"/>
<rect x="255" y="230" width="2.5" height="2.5" fill="blue"/>
<rect x="260" y="230" width="2.5" height="2.5" fill="blue"/>
<rect x="240" y="235" width="2.5" height="2.5" fill="blue"/>
<rect x="245" y="235" width="2.5" height="2.5" fill="blue"/>
<rect x="250" y="235" width="2.5" height="2.5" fill="blue"/>
<rect x="255" y="235" width="2.5" height="2.5" fill="blue"/>
<rect x="260" y="235" width="2.5" height="2.5" fill="blue"/>
<rect x="265" y="235" width="2.5" height="2.5" fill="blue"/>
<rect x="245" y="240" width="2.5" height="2.5" fill="blue"/>
<rect x="250" y="240" width="2.5" height="2.5" fill="blue"/>
<rect x="255" y="240" width="2.5" height="2.5" fill="blue"/>
<rect x="260" y="240" width="2.5" height="2.5" fill="blue"/>
<rect x="265" y="240" width="2.5" height="2.5" fill="blue"/>
<rect x="270" y="240" width="2.5" height="2.5" fill="blue"/>
<rect x="275" y="240" width="2.5" height="2.5" fill="blue"/>
<rect x="250" y="245" width="2.5" height="2.5" fill="blue"/>
<rect x="255" y="245" width="2.5" height="2.5" fill="blue"/>
<rect x="260" y="245" width="2.5" height="2.5" fill="blue"/>
<rect x="265" y="245" width="2.5" height="2.5" fill="blue"/>
<rect x="270" y="245" width="2.5" height="2.5" fill="blue"/>
<rect x="275" y="245" width="2.5" height="2.5" fill="blue"/>
<rect x="280" y="245" width="2.5" height="2.5" fill="blue"/>
<rect x="255" y="250" width="2.5" height="2.5" fill="blue"/>
<rect x="260" y="250" width="2.5" height="2.5" fill="blue"/>
<rect x="265" y="250" width="2.5" height="2.5" fill="blue"/>
<rect x="270" y="250" width="2.5" height="2.5" fill="blue"/>
<rect x="275" y="250" width="2.5" height="2.5" fill="blue"/>
<rect x="280" y="250" width="2.5" height="2.5" fill="blue"/>
<rect x="285" y="250" width="2.5" height="2.5" fill="blue"/>
<rect x="260" y="255" width="2.5" height="2.5" fill="blue"/>
<rect x="265" y="255" width="2.5" height="2.5" fill="blue"/>
<rect x="270" y="255" width="2.5" height="2.5" fill="blue"/>
<rect x="275" y="255" width="2.5" height="2.5" fill="blue"/>
<rect x="280" y="255" width="2.5" height="2.5" fill="blue"/>
<rect x="285" y="255" width="2.5" height="2.5" fill="blue"/>
<rect x="265" y="260" width="2.5" height="2.5" fill="blue"/>
<rect x="270" y="260" width="2.5" height="2.5" fill="blue"/>
<rect x="275" y="260" width="2.5" height="2.5" fill="blue"/>
<rect x="280" y="260" width="2.5" height="2.5" fill="blue"/>
<rect x="285" y="260" width="2.5" height="2.5" fill="blue"/>
<rect x="290" y="260" width="2.5" height="2.5" fill="blue"/>
<rect x="270" y="265" width="2.5" height="2.5" fill="blue"/>
<rect x="275" y="265" width="2.5" height="2.5" fill="blue"/>
<rect x="280" y="265" width="2.5" height="2.5" fill="blue"/>
<rect x="285" y="265" width="2.5" height="2.5" fill="blue"/>
<rect x="290" y="265" width="2.5" height="2.5" fill="blue"/>
<rect x="295" y="265" width="2.5" height="2.5" fill="blue"/>
<rect x="275" y="270" width="2.5" height="2.5" fill="blue"/>
<rect x="280" y="270" width="2.5" height="2.5" fill="blue"/>
<rect x="285" y="270" width="2.5" height="2.5" fill="blue"/>
<rect x="290" y="270" width="2.5" height="2.5" fill="blue"/>
<rect x="295" y="270" width="2.5" height="2.5" fill="blue"/>
<rect x="300" y="270" width="2.5" height="2.5" fill="blue"/>
<rect x="280" y="275" width="2.5" height="2.5" fill="blue"/>
<rect x="285" y="275" width="2.5" height="2.5" fill="blue"/>
<rect x="290" y="275" width="2.5" height="2.5" fill="blue"/>
<rect x="295" y="275" width="2.5" height="2.5" fill="blue"/>
<rect x="300" y="275" width="2.5" height="2.5" fill="blue"/>
<rect x="305" y="275" width="2.5" height="2.5" fill="blue"/>
<rect x="285" y="280" width="2.5" height="2.5" fill="blue"/>
<rect x="290" y="280" width="2.5" height="2.5" fill="blue"/>
<rect x="295" y="280" width="2.5" height="2.5" fill="blue"/>
<rect x="300" y="280" width="2.5" height="2.5" fill="blue"/>
<rect x="305" y="280" width="2.5" height="2.5" fill="blue"/>
<rect x="310" y="280" width="2.5" height="2.5" fill="blue"/>
<rect x="290" y="285" width="2.5" height="2.5" fill="blue"/>
<rect x="295" y="285" width="2.5" height="2.5" fill="blue"/>
<rect x="300" y="285" width="2.5" height="2.5" fill="blue"/>
<rect x="305" y="285" width="2.5" height="2.5" fill="blue"/>
<rect x="310" y="285" width="2.5" height="2.5" fill="blue"/>
<rect x="315" y="285" width="2.5" height="2.5" fill="blue"/>
<rect x="320" y="285" width="2.5" height="2.5" fill="blue"/>
<rect x="295" y="290" width="2.5" height="2.5" fill="blue"/>
<rect x="300" y="290" width="2.5" height="2.5" fill="blue"/>
<rect x="305" y="290" width="2.5" height="2.5" fill="blue"/>
<rect x="310" y="290" width="2.5" height="2.5" fill="blue"/>
<rect x="315" y="290" width="2.5" height="2.5" fill="blue"/>
<rect x="320" y="290" width="2.5" height="2.5" fill="blue"/>
<rect x="325" y="290" width="2.5" height="2.5" fill="blue"/>
<rect x="300" y="295" width="2.5" height="2.5" fill="blue"/>
<rect x="305" y="295" width="2.5" height="2.5" fill="blue"/>
<rect x="310" y="295" width="2.5" height="2.5" fill="blue"/>
<rect x="315" y="295" width="2.5" height="2.5" fill="blue"/>
<rect x="320" y="295" width="2.5" height="2.5" fill="blue"/>
<rect x="325" y="295" width="2.5" height="2.5" fill="blue"/>
<rect x="330" y="295" width="2.5" height="2.5" fill="blue"/>
<rect x="305" y="300" width="2.5" height="2.5" fill="blue"/>
<rect x="310" y="300" width="2.5" height="2.5" fill="blue"/>
<rect x="315" y="300" width="2.5" height="2.5" fill="blue"/>
<rect x="320" y="300" width="2.5" height="2.5" fill="blue"/>
<rect x="325" y="300" width="2.5" height="2.5" fill="blue"/>
<rect x="330" y="300" width="2.5" height="2.5" fill="blue"/>
<rect x="335" y="300" width="2.5" height="2.5" fill="blue"/>
<rect x="310" y="305" width="2.5" height="2.5" fill="blue"/>
<rect x="315" y="305" width="2.5" height="2.5" fill="blue"/>
<rect x="320" y="305" width="2.5" height="2.5" fill="blue"/>
<rect x="325" y="305" width="2.5" height="2.5" fill="blue"/>
<rect x="330" y="305" width="2.5" height="2.5" fill="blue"/>
<rect x="335" y="305" width="2.5" height="2.5" fill="blue"/>
<rect x="340" y="305" width="2.5" height="2.5" fill="blue"/>
<rect x="315" y="310" width="2.5" height="2.5" fill="blue"/>
<rect x="320" y="310" width="2.5" height="2.5" fill="blue"/>
<rect x="325" y="310" width="2.5" height="2.5" fill="blue"/>
<rect x="330" y="310" width="2.5" height="2.5" fill="blue"/>
<rect x="335" y="310" width="2.5" height="2.5" fill="blue"/>
<rect x="340" y="310" width="2.5" height="2.5" fill="blue"/>
<rect x="320" y="315" width="2.5" height="2.5" fill="blue"/>
<rect x="325" y="315" width="2.5" height="2.5" fill="blue"/>
<rect x="330" y="315" width="2.5" height="2.5" fill="blue"/>
<rect x="335" y="315" width="2.5" height="2.5" fill="blue"/>
<rect x="340" y="315" width="2.5" height="2.5" fill="blue"/>
<rect x="345" y="315" width="2.5" height="2.5" fill="blue"/>
<rect x="325" y="320" width="2.5" height="2.5" fill="blue"/>
<rect x="330" y="320" width="2.5" height="2.5" fill="blue"/>
<rect x="335" y="320" width="2.5" height="2.5" fill="blue"/>
<rect x="340" y="320" width="2.5" height="2.5" fill="blue"/>
<rect x="345" y="320" width="2.5" height="2.5" fill="blue"/>
<rect x="350" y="320" width="2.5" height="2.5" fill="blue"/>
<rect x="330" y="325" width="2.5" height="2.5" fill="blue"/>
<rect x="335" y="325" width="2.5" height="2.5" fill="blue"/>
<rect x="340" y="325" width="2.5" height="2.5" fill="blue"/>
<rect x="345" y="325" width="2.5" height="2.5" fill="blue"/>
<rect x="350" y="325" width="2.5" height="2.5" fill="blue"/>
<rect x="335" y="330" width="2.5" height="2.5" fill="blue"/>
<rect x="340" y="330" width="2.5" height="2.5" fill="blue"/>
<rect x="345" y="330" width="2.5" height="2.5" fill="blue"/>
<rect x="350" y="330" width="2.5" height="2.5" fill="blue"/>
<rect x="355" y="330" width="2.5" height="2.5" fill="blue"/>
<rect x="360" y="330" width="2.5" height="2.5" fill="blue"/>
<rect x="340" y="335" width="2.5" height="2.5" fill="blue"/>
<rect x="345" y="335" width="2.5" height="2.5" fill="blue"/>
<rect x="350" y="335" width="2.5" height="2.5" fill="blue"/>
<rect x="355" y="335" width="2.5" height="2.5" fill="blue"/>
<rect x="360" y="335" width="2.5" height="2.5" fill="blue"/>
<rect x="365" y="335" width="2.5" height="2.5" fill="blue"/>
<rect x="345" y="340" width="2.5" height="2.5" fill="blue"/>
<rect x="350" y="340" width="2.5" height="2.5" fill="blue"/>
<rect x="355" y="340" width="2.5" height="2.5" fill="blue"/>
<rect x="360" y="340" width="2.5" height="2.5" fill="blue"/>
<rect x="365" y="340" width="2.5" height="2.5" fill="blue"/>
<rect x="370" y="340" width="2.5" height="2.5" fill="blue"/>
<rect x="375" y="340" width="2.5" height="2.5" fill="blue"/>
<rect x="350" y="345" width="2.5" height="2.5" fill="blue"/>
<rect x="355" y="345" width="2.5" height="2.5" fill="blue"/>
<rect x="360" y="345" width="2.5" height="2.5" fill="blue"/>
<rect x="365" y="345" width="2.5" height="2.5" fill="blue"/>
<rect x="370" y="345" width="2.5" height="2.5" fill="blue"/>
<rect x="375" y="345" width="2.5" height="2.5" fill="blue"/>
<rect x="380" y="345" width="2.5" height="2.5" fill="blue"/>
<rect x="355" y="350" width="2.5" height="2.5" fill="blue"/>
<rect x="360" y="350" width="2.5" height="2.5" fill="blue"/>
<rect x="365" y="350" width="2.5" height="2.5" fill="blue"/>
<rect x="370" y="350" width="2.5" height="2.5" fill="blue"/>
<rect x="375" y="350" width="2.5" height="2.5" fill="blue"/>
<rect x="380" y="350" width="2.5" height="2.5" fill="blue"/>
<rect x="385" y="350" width="2.5" height="2.5" fill="blue"/>
<rect x="390" y="350" width="2.5" height="2.5" fill="blue"/>
<rect x="395" y="350" width="2.5" height="2.5" fill="blue"/>
<rect x="400" y="350" width="2.5" height="2.5" fill="blue"/>
<rect x="360" y="355" width="2.5" height="2.5" fill="blue"/>
<rect x="365" y="355" width="2.5" height="2.5" fill="blue"/>
<rect x="370" y="355" width="2.5" height="2.5" fill="blue"/>
<rect x="375" y="355" width="2.5" height="2.5" fill="blue"/>
<rect x="380" y="355" width="2.5" height="2.5" fill="blue"/>
<rect x="385" y="355" width="2.5" height="2.5" fill="blue"/>
<rect x="390" y="355" width="2.5" height="2.5" fill="blue"/>
<rect x="395" y="355" width="2.5" height="2.5" fill="blue"/>
<rect x="365" y="360" width="2.5" height="2.5" fill="blue"/>
<rect x="370" y="360" width="2.5" height="2.5" fill="blue"/>
<rect x="375" y="360" width="2.5" height="2.5" fill="blue"/>
<rect x="380" y="360" width="2.5" height="2.5" fill="blue"/>
<rect x="385" y="360" width="2.5" height="2.5" fill="blue"/>
<rect x="390" y="360" width="2.5" height="2.5" fill="blue"/>
<rect x="395" y="360" width="2.5" height="2.5" fill="blue"/>
<rect x="400" y="360" width="2.5" height="2.5" fill="blue"/>
<rect x="370" y="365" width="2.5" height="2.5" fill="blue"/>
<rect x="375" y="365" width="2.5" height="2.5" fill="blue"/>
<rect x="380" y="365" width="2.5" height="2.5" fill="blue"/>
<rect x="385" y="365" width="2.5" height="2.5" fill="blue"/>
<rect x="390" y="365" width="2.5" height="2.5" fill="blue"/>
<rect x="395" y="365" width="2.5" height="2.5" fill="blue"/>
<rect x="400" y="365" width="2.5" height="2.5" fill="blue"/>
<rect x="405" y="365" width="2.5" height="2.5" fill="blue"/>
<rect x="375" y="370" width="2.5" height="2.5" fill="blue"/>
<rect x="380" y="370" width="2.5" height="2.5" fill="blue"/>
<rect x="385" y="370" width="2.5" height="2.5" fill="blue"/>
<rect x="390" y="370" width="2.5" height="2.5" fill="blue"/>
<rect x="395" y="370" width="2.5" height="2.5" fill="blue"/>
<rect x="400" y="370" width="2.5" height="2.5" fill="blue"/>
<rect x="405" y="370" width="2.5" height="2.5" fill="blue"/>
<rect x="410" y="370" width="2.5" height="2.5" fill="blue"/>
<rect x="435" y="370" width="2.5" height="2.5" fill="blue"/>
<rect x="380" y="375" width="2.5" height="2.5" fill="blue"/>
<rect x="385" y="375" width="2.5" height="2.5" fill="blue"/>
<rect x="390" y="375" width="2.5" height="2.5" fill="blue"/>
<rect x="395" y="375" width="2.5" height="2.5" fill="blue"/>
<rect x="400" y="375" width="2.5" height="2.5" fill="blue"/>
<rect x="405" y="375" width="2.5" height="2.5" fill="blue"/>
<rect x="410" y="375" width="2.5" height="2.5" fill="blue"/>
<rect x="415" y="375" width="2.5" height="2.5" fill="blue"/>
<rect x="385" y="380" width="2.5" height="2.5" fill="blue"/>
<rect x="390" y="380" width="2.5" height="2.5" fill="blue"/>
<rect x="395" y="380" width="2.5" height="2.5" fill="blue"/>
<rect x="400" y="380" width="2.5" height="2.5" fill="blue"/>
<rect x="405" y="380" width="2.5" height="2.5" fill="blue"/>
<rect x="410" y="380" width="2.5" height="2.5" fill="blue"/>
<rect x="415" y="380" width="2.5" height="2.5" fill="blue"/>
<rect x="390" y="385" width="2.5" height="2.5" fill="blue"/>
<rect x="395" y="385" width="2.5" height="2.5" fill="blue"/>
<rect x="400" y="385" width="2.5" height="2.5" fill="blue"/>
<rect x="405" y="385" width="2.5" height="2.5" fill="blue"/>
<rect x="410" y="385" width="2.5" height="2.5" fill="blue"/>
<rect x="415" y="385" width="2.5" height="2.5" fill="blue"/>
<rect x="420" y="385" width="2.5" height="2.5" fill="blue"/>
<rect x="425" y="385" width="2.5" height="2.5" fill="blue"/>
<rect x="395" y="390" width="2.5" height="2.5" fill="blue"/>
<rect x="400" y="390" width="2.5" height="2.5" fill="blue"/>
<rect x="405" y="390" width="2.5" height="2.5" fill="blue"/>
<rect x="410" y="390" width="2.5" height="2.5" fill="blue"/>
<rect x="415" y="390" width="2.5" height="2.5" fill="blue"/>
<rect x="420" y="390" width="2.5" height="2.5" fill="blue"/>
<rect x="425" y="390" width="2.5" height="2.5" fill="blue"/>
<rect x="430" y="390" width="2.5" height="2.5" fill="blue"/>
<rect x="400" y="395" width="2.5" height="2.5" fill="blue"/>
<rect x="405" y="395" width="2.5" height="2.5" fill="blue"/>
<rect x="410" y="395" width="2.5" height="2.5" fill="blue"/>
<rect x="415" y="395" width="2.5" height="2.5" fill="blue"/>
<rect x="420" y="395" width="2.5" height="2.5" fill="blue"/>
<rect x="425" y="395" width="2.5" height="2.5" fill="blue"/>
<rect x="430" y="395" width="2.5" height="2.5" fill="blue"/>
<rect x="435" y="395" width="2.5" height="2.5" fill="blue"/>
<rect x="440" y="395" width="2.5" height="2.5" fill="blue"/>
<rect x="405" y="400" width="2.5" height="2.5" fill="blue"/>
<rect x="410" y="400" width="2.5" height="2.5" fill="blue"/>
<rect x="415" y="400" width="2.5" height="2.5" fill="blue"/>
<rect x="420" y="400" width="2.5" height="2.5" fill="blue"/>
<rect x="425" y="400" width="2.5" height="2.5" fill="blue"/>
<rect x="430" y="400" width="2.5" height="2.5" fill="blue"/>
<rect x="435" y="400" width="2.5" height="2.5" fill="blue"/>
<rect x="440" y="400" width="2.5" height="2.5" fill="blue"/>
<rect x="410" y="405" width="2.5" height="2.5" fill="blue"/>
<rect x="415" y="405" width="2.5" height="2.5" fill="blue"/>
<rect x="420" y="405" width="2.5" height="2.5" fill="blue"/>
<rect x="425" y="405" width="2.5" height="2.5" fill="blue"/>
<rect x="430" y="405" width="2.5" height="2.5" fill="blue"/>
<rect x="435" y="405" width="2.5" height="2.5" fill="blue"/>
<rect x="440" y="405" width="2.5" height="2.5" fill="blue"/>
<rect x="415" y="410" width="2.5" height="2.5" fill="blue"/>
<rect x="420" y="410" width="2.5" height="2.5" fill="blue"/>
<rect x="425" y="410" width="2.5" height="2.5" fill="blue"/>
<rect x="430" y="410" width="2.5" height="2.5" fill="blue"/>
<rect x="435" y="410" width="2.5" height="2.5" fill="blue"/>
<rect x="440" y="410" width="2.5" height="2.5" fill="blue"/>
<rect x="420" y="415" width="2.5" height="2.5" fill="blue"/>
<rect x="425" y="415" width="2.5" height="2.5" fill="blue"/>
<rect x="430" y="415" width="2.5" height="2.5" fill="blue"/>
<rect x="435" y="415" width="2.5" height="2.5" fill="blue"/>
<rect x="440" y="415" width="2.5" height="2.5" fill="blue"/>
<rect x="425" y="420" width="2.5" height="2.5" fill="blue"/>
<rect x="430" y="420" width="2.5" height="2.5" fill="blue"/>
<rect x="435" y="420" width="2.5" height="2.5" fill="blue"/>
<rect x="440" y="420" width="2.5" height="2.5" fill="blue"/>
<rect x="430" y="425" width="2.5" height="2.5" fill="blue"/>
<rect x="435" y="425" width="2.5" height="2.5" fill="blue"/>
<rect x="440" y="425" width="2.5" height="2.5" fill="blue"/>
<rect x="435" y="430" width="2.5" height="2.5" fill="blue"/>
<rect x="440" y="430" width="2.5" height="2.5" fill="blue"/>
<rect x="440" y="435" width="2.5" height="2.5" fill="blue"/>
<text x="450" y="5" font-size="5" fill="black">0</text>
<text x="450" y="440" font-size="5" fill="black">89</text>
<polyline points="450,10,450,435" stroke="black" stroke-width="1" fill="none"/>
<text x="5" y="450" font-size="5" fill="black">0</text>
<text x="440" y="450" font-size="5" fill="black">89</text>
<polyline points="10,450,435,450" stroke="black" stroke-width="1" fill="none"/>
</svg>