<?xml version="1.0" standalone="yes"?>
<!-- SVG graphic -->
<svg xmlns='http://www.w3.org/2000/svg' xmlns:xlink='http://www.w3.org/1999/xlink'
 version="1.1">
<rect x="0" y="0" width="6" height="200" stroke="black" stroke-width="1" fill="blue" tooltip="enable"><title>(0,39924)</title></rect><rect x="6" y="11.9778" width="6" height="188.022" stroke="black" stroke-width="1" fill="blue" tooltip="enable"><title>(0.0397918,37533)</title></rect><rect x="12" y="28.5943" width="6" height="171.406" stroke="black" stroke-width="1" fill="blue" tooltip="enable"><title>(0.0795837,34216)</title></rect><rect x="18" y="43.5878" width="6" height="156.412" stroke="black" stroke-width="1" fill="blue" tooltip="enable"><title>(0.119375,31223)</title></rect><rect x="24" y="60.1944" width="6" height="139.806" stroke="black" stroke-width="1" fill="blue" tooltip="enable"><title>(0.159167,27908)</title></rect><rect x="30" y="72.603" width="6" height="127.397" stroke="black" stroke-width="1" fill="blue" tooltip="enable"><title>(0.198959,25431)</title></rect><rect x="36" y="86.0134" width="6" height="113.987" stroke="black" stroke-width="1" fill="blue" tooltip="enable"><title>(0.238751,22754)</title></rect><rect x="42" y="97.0995" width="6" height="102.901" stroke="black" stroke-width="1" fill="blue" tooltip="enable"><title>(0.278543,20541)</title></rect><rect x="48" y="108" width="6" height="91.9998" stroke="black" stroke-width="1" fill="blue" tooltip="enable"><title>(0.318335,18365)</title></rect><rect x="54" y="115.64" width="6" height="84.3603" stroke="black" stroke-width="1" fill="blue" tooltip="enable"><title>(0.358127,16840)</title></rect><rect x="60" y="124.947" width="6" height="75.0526" stroke="black" stroke-width="1" fill="blue" tooltip="enable"><title>(0.397918,14982)</title></rect><rect x="66" y="130.904" width="6" height="69.0963" stroke="black" stroke-width="1" fill="blue" tooltip="enable"><title>(0.43771,13793)</title></rect><rect x="72" y="137.171" width="6" height="62.8294" stroke="black" stroke-width="1" fill="blue" tooltip="enable"><title>(0.477502,12542)</title></rect><rect x="78" y="142.947" width="6" height="57.0534" stroke="black" stroke-width="1" fill="blue" tooltip="enable"><title>(0.517294,11389)</title></rect><rect x="84" y="147.866" width="6" height="52.1341" stroke="black" stroke-width="1" fill="blue" tooltip="enable"><title>(0.557086,10407)</title></rect><rect x="90" y="152.44" width="6" height="47.5604" stroke="black" stroke-width="1" fill="blue" tooltip="enable"><title>(0.596878,9494)</title></rect><rect x="96" y="156.202" width="6" height="43.7982" stroke="black" stroke-width="1" fill="blue" tooltip="enable"><title>(0.636669,8743)</title></rect><rect x="102" y="160.264" width="6" height="39.7355" stroke="black" stroke-width="1" fill="blue" tooltip="enable"><title>(0.676461,7932)</title></rect><rect x="108" y="161.958" width="6" height="38.0423" stroke="black" stroke-width="1" fill="blue" tooltip="enable"><title>(0.716253,7594)</title></rect><rect x="114" y="166.191" width="6" height="33.8092" stroke="black" stroke-width="1" fill="blue" tooltip="enable"><title>(0.756045,6749)</title></rect><rect x="120" y="168.68" width="6" height="31.3195" stroke="black" stroke-width="1" fill="blue" tooltip="enable"><title>(0.795837,6252)</title></rect><rect x="126" y="170.559" width="6" height="29.4409" stroke="black" stroke-width="1" fill="blue" tooltip="enable"><title>(0.835629,5877)</title></rect><rect x="132" y="172.848" width="6" height="27.1516" stroke="black" stroke-width="1" fill="blue" tooltip="enable"><title>(0.87542,5420)</title></rect><rect x="138" y="174.657" width="6" height="25.3432" stroke="black" stroke-width="1" fill="blue" tooltip="enable"><title>(0.915212,5059)</title></rect><rect x="144" y="176.485" width="6" height="23.5147" stroke="black" stroke-width="1" fill="blue" tooltip="enable"><title>(0.955004,4694)</title></rect><rect x="150" y="177.117" width="6" height="22.8835" stroke="black" stroke-width="1" fill="blue" tooltip="enable"><title>(0.994796,4568)</title></rect><rect x="156" y="179.276" width="6" height="20.7244" stroke="black" stroke-width="1" fill="blue" tooltip="enable"><title>(1.03459,4137)</title></rect><rect x="162" y="180.593" width="6" height="19.4069" stroke="black" stroke-width="1" fill="blue" tooltip="enable"><title>(1.07438,3874)</title></rect><rect x="168" y="181.886" width="6" height="18.1144" stroke="black" stroke-width="1" fill="blue" tooltip="enable"><title>(1.11417,3616)</title></rect><rect x="174" y="182.943" width="6" height="17.0574" stroke="black" stroke-width="1" fill="blue" tooltip="enable"><title>(1.15396,3405)</title></rect><rect x="180" y="183.799" width="6" height="16.2008" stroke="black" stroke-width="1" fill="blue" tooltip="enable"><title>(1.19376,3234)</title></rect><rect x="186" y="184.726" width="6" height="15.274" stroke="black" stroke-width="1" fill="blue" tooltip="enable"><title>(1.23355,3049)</title></rect><rect x="192" y="186.028" width="6" height="13.9715" stroke="black" stroke-width="1" fill="blue" tooltip="enable"><title>(1.27334,2789)</title></rect><rect x="198" y="187.196" width="6" height="12.8043" stroke="black" stroke-width="1" fill="blue" tooltip="enable"><title>(1.31313,2556)</title></rect><rect x="204" y="187.531" width="6" height="12.4687" stroke="black" stroke-width="1" fill="blue" tooltip="enable"><title>(1.35292,2489)</title></rect><rect x="210" y="188.353" width="6" height="11.6471" stroke="black" stroke-width="1" fill="blue" tooltip="enable"><title>(1.39271,2325)</title></rect><rect x="216" y="188.759" width="6" height="11.2414" stroke="black" stroke-width="1" fill="blue" tooltip="enable"><title>(1.43251,2244)</title></rect><rect x="222" y="189.59" width="6" height="10.4098" stroke="black" stroke-width="1" fill="blue" tooltip="enable"><title>(1.4723,2078)</title></rect><rect x="228" y="190.552" width="6" height="9.44795" stroke="black" stroke-width="1" fill="blue" tooltip="enable"><title>(1.51209,1886)</title></rect><rect x="234" y="190.903" width="6" height="9.09728" stroke="black" stroke-width="1" fill="blue" tooltip="enable"><title>(1.55188,1816)</title></rect><rect x="240" y="191.419" width="6" height="8.5813" stroke="black" stroke-width="1" fill="blue" tooltip="enable"><title>(1.59167,1713)</title></rect><rect x="246" y="191.86" width="6" height="8.14047" stroke="black" stroke-width="1" fill="blue" tooltip="enable"><title>(1.63147,1625)</title></rect><rect x="252" y="192.401" width="6" height="7.59944" stroke="black" stroke-width="1" fill="blue" tooltip="enable"><title>(1.67126,1517)</title></rect><rect x="258" y="192.235" width="6" height="7.76475" stroke="black" stroke-width="1" fill="blue" tooltip="enable"><title>(1.71105,1550)</title></rect><rect x="264" y="193.387" width="6" height="6.61256" stroke="black" stroke-width="1" fill="blue" tooltip="enable"><title>(1.75084,1320)</title></rect><rect x="270" y="193.493" width="6" height="6.50736" stroke="black" stroke-width="1" fill="blue" tooltip="enable"><title>(1.79063,1299)</title></rect><rect x="276" y="193.898" width="6" height="6.10159" stroke="black" stroke-width="1" fill="blue" tooltip="enable"><title>(1.83042,1218)</title></rect><rect x="282" y="194.149" width="6" height="5.85112" stroke="black" stroke-width="1" fill="blue" tooltip="enable"><title>(1.87022,1168)</title></rect><rect x="288" y="194.77" width="6" height="5.22994" stroke="black" stroke-width="1" fill="blue" tooltip="enable"><title>(1.91001,1044)</title></rect><rect x="294" y="194.79" width="6" height="5.2099" stroke="black" stroke-width="1" fill="blue" tooltip="enable"><title>(1.9498,1040)</title></rect><rect x="300" y="195.597" width="6" height="4.40337" stroke="black" stroke-width="1" fill="blue" tooltip="enable"><title>(1.98959,879)</title></rect><rect x="306" y="196.053" width="6" height="3.9475" stroke="black" stroke-width="1" fill="blue" tooltip="enable"><title>(2.02938,788)</title></rect><rect x="312" y="196.223" width="6" height="3.77718" stroke="black" stroke-width="1" fill="blue" tooltip="enable"><title>(2.06918,754)</title></rect><rect x="318" y="196.238" width="6" height="3.76215" stroke="black" stroke-width="1" fill="blue" tooltip="enable"><title>(2.10897,751)</title></rect><rect x="324" y="196.523" width="6" height="3.47661" stroke="black" stroke-width="1" fill="blue" tooltip="enable"><title>(2.14876,694)</title></rect><rect x="330" y="196.493" width="6" height="3.50666" stroke="black" stroke-width="1" fill="blue" tooltip="enable"><title>(2.18855,700)</title></rect><rect x="336" y="196.849" width="6" height="3.15099" stroke="black" stroke-width="1" fill="blue" tooltip="enable"><title>(2.22834,629)</title></rect><rect x="342" y="196.694" width="6" height="3.30628" stroke="black" stroke-width="1" fill="blue" tooltip="enable"><title>(2.26813,660)</title></rect><rect x="348" y="197.215" width="6" height="2.78529" stroke="black" stroke-width="1" fill="blue" tooltip="enable"><title>(2.30793,556)</title></rect><rect x="354" y="197.44" width="6" height="2.55986" stroke="black" stroke-width="1" fill="blue" tooltip="enable"><title>(2.34772,511)</title></rect><rect x="360" y="197.345" width="6" height="2.65504" stroke="black" stroke-width="1" fill="blue" tooltip="enable"><title>(2.38751,530)</title></rect><rect x="366" y="197.651" width="6" height="2.34946" stroke="black" stroke-width="1" fill="blue" tooltip="enable"><title>(2.4273,469)</title></rect><rect x="372" y="197.901" width="6" height="2.09899" stroke="black" stroke-width="1" fill="blue" tooltip="enable"><title>(2.46709,419)</title></rect><rect x="378" y="197.746" width="6" height="2.25428" stroke="black" stroke-width="1" fill="blue" tooltip="enable"><title>(2.50689,450)</title></rect><rect x="384" y="198.006" width="6" height="1.99379" stroke="black" stroke-width="1" fill="blue" tooltip="enable"><title>(2.54668,398)</title></rect><rect x="390" y="198.126" width="6" height="1.87356" stroke="black" stroke-width="1" fill="blue" tooltip="enable"><title>(2.58647,374)</title></rect><rect x="396" y="198.232" width="6" height="1.76836" stroke="black" stroke-width="1" fill="blue" tooltip="enable"><title>(2.62626,353)</title></rect><rect x="402" y="198.312" width="6" height="1.68821" stroke="black" stroke-width="1" fill="blue" tooltip="enable"><title>(2.66605,337)</title></rect><rect x="408" y="198.462" width="6" height="1.53792" stroke="black" stroke-width="1" fill="blue" tooltip="enable"><title>(2.70584,307)</title></rect><rect x="414" y="198.512" width="6" height="1.48783" stroke="black" stroke-width="1" fill="blue" tooltip="enable"><title>(2.74564,297)</title></rect><rect x="420" y="198.647" width="6" height="1.35257" stroke="black" stroke-width="1" fill="blue" tooltip="enable"><title>(2.78543,270)</title></rect><rect x="426" y="198.637" width="6" height="1.36259" stroke="black" stroke-width="1" fill="blue" tooltip="enable"><title>(2.82522,272)</title></rect><rect x="432" y="198.758" width="6" height="1.24236" stroke="black" stroke-width="1" fill="blue" tooltip="enable"><title>(2.86501,248)</title></rect><rect x="438" y="198.823" width="6" height="1.17724" stroke="black" stroke-width="1" fill="blue" tooltip="enable"><title>(2.9048,235)</title></rect><rect x="444" y="198.953" width="6" height="1.04699" stroke="black" stroke-width="1" fill="blue" tooltip="enable"><title>(2.9446,209)</title></rect><rect x="450" y="199.098" width="6" height="0.901713" stroke="black" stroke-width="1" fill="blue" tooltip="enable"><title>(2.98439,180)</title></rect><rect x="456" y="199.058" width="6" height="0.941789" stroke="black" stroke-width="1" fill="blue" tooltip="enable"><title>(3.02418,188)</title></rect><rect x="462" y="199.028" width="6" height="0.971847" stroke="black" stroke-width="1" fill="blue" tooltip="enable"><title>(3.06397,194)</title></rect><rect x="468" y="199.234" width="6" height="0.766456" stroke="black" stroke-width="1" fill="blue" tooltip="enable"><title>(3.10376,153)</title></rect><rect x="474" y="199.254" width="6" height="0.746418" stroke="black" stroke-width="1" fill="blue" tooltip="enable"><title>(3.14355,149)</title></rect><rect x="480" y="199.299" width="6" height="0.701333" stroke="black" stroke-width="1" fill="blue" tooltip="enable"><title>(3.18335,140)</title></rect><rect x="486" y="199.319" width="6" height="0.681294" stroke="black" stroke-width="1" fill="blue" tooltip="enable"><title>(3.22314,136)</title></rect><rect x="492" y="199.269" width="6" height="0.73139" stroke="black" stroke-width="1" fill="blue" tooltip="enable"><title>(3.26293,146)</title></rect><rect x="498" y="199.464" width="6" height="0.536018" stroke="black" stroke-width="1" fill="blue" tooltip="enable"><title>(3.30272,107)</title></rect><rect x="504" y="199.339" width="6" height="0.661256" stroke="black" stroke-width="1" fill="blue" tooltip="enable"><title>(3.34251,132)</title></rect><rect x="510" y="199.559" width="6" height="0.440838" stroke="black" stroke-width="1" fill="blue" tooltip="enable"><title>(3.38231,88)</title></rect><rect x="516" y="199.509" width="6" height="0.490933" stroke="black" stroke-width="1" fill="blue" tooltip="enable"><title>(3.4221,98)</title></rect><rect x="522" y="199.579" width="6" height="0.4208" stroke="black" stroke-width="1" fill="blue" tooltip="enable"><title>(3.46189,84)</title></rect><rect x="528" y="199.554" width="6" height="0.445847" stroke="black" stroke-width="1" fill="blue" tooltip="enable"><title>(3.50168,89)</title></rect><rect x="534" y="199.554" width="6" height="0.445847" stroke="black" stroke-width="1" fill="blue" tooltip="enable"><title>(3.54147,89)</title></rect><rect x="540" y="199.704" width="6" height="0.295562" stroke="black" stroke-width="1" fill="blue" tooltip="enable"><title>(3.58126,59)</title></rect><rect x="546" y="199.714" width="6" height="0.285543" stroke="black" stroke-width="1" fill="blue" tooltip="enable"><title>(3.62106,57)</title></rect><rect x="552" y="199.679" width="6" height="0.320609" stroke="black" stroke-width="1" fill="blue" tooltip="enable"><title>(3.66085,64)</title></rect><rect x="558" y="199.709" width="6" height="0.290552" stroke="black" stroke-width="1" fill="blue" tooltip="enable"><title>(3.70064,58)</title></rect><rect x="564" y="199.81" width="6" height="0.190362" stroke="black" stroke-width="1" fill="blue" tooltip="enable"><title>(3.74043,38)</title></rect><rect x="570" y="199.8" width="6" height="0.200381" stroke="black" stroke-width="1" fill="blue" tooltip="enable"><title>(3.78022,40)</title></rect><rect x="576" y="199.835" width="6" height="0.165314" stroke="black" stroke-width="1" fill="blue" tooltip="enable"><title>(3.82002,33)</title></rect><rect x="582" y="199.855" width="6" height="0.145276" stroke="black" stroke-width="1" fill="blue" tooltip="enable"><title>(3.85981,29)</title></rect><rect x="588" y="199.85" width="6" height="0.150286" stroke="black" stroke-width="1" fill="blue" tooltip="enable"><title>(3.8996,30)</title></rect><rect x="594" y="199.95" width="6" height="0.0500952" stroke="black" stroke-width="1" fill="blue" tooltip="enable"><title>(3.93939,10)</title></rect><text x="30" y="240" font-size="20" fill="black">0</text>
<text x="600" y="240" font-size="20" fill="black">3.97918</text>
<polyline points="0,220,600,220" stroke="black" stroke-width="1" fill="none"/>
<text x="720" y="20" font-size="20" fill="black">39924</text>
<text x="720" y="200" font-size="20" fill="black">0</text>
<polyline points="660,0,660,200" stroke="black" stroke-width="1" fill="none"/>
</svg>